<svg width="107" height="144" viewBox="0 0 107 144" fill="none" xmlns="http://www.w3.org/2000/svg">
<path d="M2.688 79.12C2.688 73.616 3.712 68.784 5.76 64.624C7.872 60.464 10.72 57.264 14.304 55.024C17.888 52.784 21.888 51.664 26.304 51.664C29.824 51.664 33.024 52.4 35.904 53.872C38.848 55.344 41.152 57.328 42.816 59.824V34.96H59.232V106H42.816V98.32C41.28 100.88 39.072 102.928 36.192 104.464C33.376 106 30.08 106.768 26.304 106.768C21.888 106.768 17.888 105.648 14.304 103.408C10.72 101.104 7.872 97.872 5.76 93.712C3.712 89.488 2.688 84.624 2.688 79.12ZM42.816 79.216C42.816 75.12 41.664 71.888 39.36 69.52C37.12 67.152 34.368 65.968 31.104 65.968C27.84 65.968 25.056 67.152 22.752 69.52C20.512 71.824 19.392 75.024 19.392 79.12C19.392 83.216 20.512 86.48 22.752 88.912C25.056 91.28 27.84 92.464 31.104 92.464C34.368 92.464 37.12 91.28 39.36 88.912C41.664 86.544 42.816 83.312 42.816 79.216Z" fill="#4486FF"/>
<path d="M5.76 64.624L4.86827 64.1713L4.86283 64.1823L5.76 64.624ZM14.304 55.024L14.834 55.872L14.834 55.872L14.304 55.024ZM35.904 53.872L35.4489 54.7625L35.4568 54.7664L35.904 53.872ZM42.816 59.824L41.984 60.3787L43.816 63.1268V59.824H42.816ZM42.816 34.96V33.96H41.816V34.96H42.816ZM59.232 34.96H60.232V33.96H59.232V34.96ZM59.232 106V107H60.232V106H59.232ZM42.816 106H41.816V107H42.816V106ZM42.816 98.32H43.816V94.7097L41.9585 97.8055L42.816 98.32ZM36.192 104.464L35.7214 103.582L35.7131 103.586L36.192 104.464ZM14.304 103.408L13.7632 104.249L13.774 104.256L14.304 103.408ZM5.76 93.712L4.86019 94.1483L4.86418 94.1565L4.86833 94.1647L5.76 93.712ZM39.36 69.52L38.6335 70.2073L38.6433 70.2174L39.36 69.52ZM22.752 69.52L22.0353 68.8226L22.035 68.8229L22.752 69.52ZM22.752 88.912L22.0165 89.5895L22.0257 89.5995L22.0353 89.6094L22.752 88.912ZM39.36 88.912L38.6432 88.2146L38.6335 88.2248L39.36 88.912ZM3.688 79.12C3.688 73.7407 4.68834 69.0649 6.65717 65.0657L4.86283 64.1823C2.73566 68.5031 1.688 73.4913 1.688 79.12H3.688ZM6.65167 65.0767C8.69012 61.0615 11.42 58.0058 14.834 55.872L13.774 54.176C10.02 56.5222 7.05388 59.8664 4.86833 64.1713L6.65167 65.0767ZM14.834 55.872C18.2518 53.7359 22.0666 52.664 26.304 52.664V50.664C21.7094 50.664 17.5243 51.8321 13.774 54.176L14.834 55.872ZM26.304 52.664C29.68 52.664 32.722 53.3687 35.4489 54.7624L36.3591 52.9816C33.326 51.4313 29.968 50.664 26.304 50.664V52.664ZM35.4568 54.7664C38.2607 56.1684 40.4257 58.0413 41.984 60.3787L43.6481 59.2693C41.8783 56.6147 39.4353 54.5196 36.3512 52.9776L35.4568 54.7664ZM43.816 59.824V34.96H41.816V59.824H43.816ZM42.816 35.96H59.232V33.96H42.816V35.96ZM58.232 34.96V106H60.232V34.96H58.232ZM59.232 105H42.816V107H59.232V105ZM43.816 106V98.32H41.816V106H43.816ZM41.9585 97.8055C40.5243 100.196 38.4569 102.123 35.7214 103.582L36.6626 105.346C39.6871 103.733 42.0357 101.564 43.6735 98.8345L41.9585 97.8055ZM35.7131 103.586C33.0681 105.029 29.9424 105.768 26.304 105.768V107.768C30.2176 107.768 33.6839 106.971 36.6709 105.342L35.7131 103.586ZM26.304 105.768C22.0666 105.768 18.2517 104.696 14.834 102.56L13.774 104.256C17.5243 106.6 21.7094 107.768 26.304 107.768V105.768ZM14.8448 102.567C11.4241 100.368 8.69113 97.2764 6.65167 93.2593L4.86833 94.1647C7.05287 98.4676 10.0159 101.84 13.7632 104.249L14.8448 102.567ZM6.65981 93.2757C4.68819 89.2093 3.688 84.4988 3.688 79.12H1.688C1.688 84.7492 2.73581 89.7667 4.86019 94.1483L6.65981 93.2757ZM43.816 79.216C43.816 74.9254 42.6036 71.4197 40.0767 68.8226L38.6433 70.2174C40.7244 72.3563 41.816 75.3146 41.816 79.216H43.816ZM40.0865 68.8328C37.6573 66.2648 34.6424 64.968 31.104 64.968V66.968C34.0936 66.968 36.5827 68.0392 38.6335 70.2072L40.0865 68.8328ZM31.104 64.968C27.5663 64.968 24.5249 66.2638 22.0353 68.8226L23.4687 70.2174C25.5871 68.0402 28.1137 66.968 31.104 66.968V64.968ZM22.035 68.8229C19.5674 71.3611 18.392 74.8384 18.392 79.12H20.392C20.392 75.2096 21.4566 72.2869 23.469 70.2171L22.035 68.8229ZM18.392 79.12C18.392 83.4043 19.5682 86.9314 22.0165 89.5895L23.4875 88.2345C21.4558 86.0286 20.392 83.0277 20.392 79.12H18.392ZM22.0353 89.6094C24.5249 92.1682 27.5663 93.464 31.104 93.464V91.464C28.1137 91.464 25.5871 90.3918 23.4687 88.2146L22.0353 89.6094ZM31.104 93.464C34.6424 93.464 37.6573 92.1672 40.0865 89.5992L38.6335 88.2248C36.5827 90.3928 34.0936 91.464 31.104 91.464V93.464ZM40.0767 89.6094C42.6036 87.0123 43.816 83.5066 43.816 79.216H41.816C41.816 83.1174 40.7244 86.0757 38.6433 88.2146L40.0767 89.6094Z" fill="#4486FF"/>
<path d="M76.7812 28.1892C76.7812 28.1892 43.3558 50.3451 78.8794 67.3292C114.403 84.3133 74.2439 105.275 74.2439 105.275" stroke="#4486FF" stroke-width="16"/>
</svg>
