<?xml version="1.0" standalone="no"?>
<!DOCTYPE svg PUBLIC "-//W3C//DTD SVG 20010904//EN"
 "http://www.w3.org/TR/2001/REC-SVG-20010904/DTD/svg10.dtd">
<svg version="1.0" xmlns="http://www.w3.org/2000/svg"
 width="1152.000000pt" height="1152.000000pt" viewBox="0 0 1152.000000 1152.000000"
 preserveAspectRatio="xMidYMid meet">
<metadata>
Created by potrace 1.14, written by Peter Selinger 2001-2017
</metadata>
<g transform="translate(0.000000,1152.000000) scale(0.100000,-0.100000)"
fill="#000000" stroke="none">
<path d="M7324 9693 c-71 -54 -136 -105 -144 -113 -9 -8 -38 -33 -64 -55 -140
-116 -345 -321 -461 -460 -27 -33 -53 -62 -56 -65 -3 -3 -38 -48 -77 -100
l-71 -96 -707 1 c-459 0 -708 -3 -713 -10 -4 -5 -7 -415 -6 -910 1 -495 0
-903 -2 -907 -2 -4 -18 6 -35 23 -68 65 -151 131 -233 186 -98 66 -370 192
-449 207 -6 2 -29 8 -52 14 -22 7 -63 16 -90 22 -27 5 -58 11 -70 14 -90 19
-368 26 -509 13 -67 -6 -85 -9 -165 -23 -19 -4 -42 -8 -50 -9 -84 -11 -389
-121 -460 -165 -8 -6 -33 -19 -55 -31 -43 -23 -167 -103 -194 -124 -164 -132
-229 -195 -362 -355 -40 -48 -168 -246 -206 -320 -68 -130 -154 -349 -178
-450 -2 -8 -13 -54 -24 -102 -22 -94 -31 -139 -36 -178 -2 -14 -6 -41 -10 -60
-4 -19 -8 -51 -10 -70 -31 -363 -22 -692 26 -925 6 -27 12 -61 14 -75 3 -14 7
-35 10 -48 3 -12 7 -30 9 -40 14 -59 20 -84 38 -142 11 -36 23 -74 27 -85 5
-11 26 -65 47 -120 45 -115 117 -259 165 -327 11 -14 19 -31 19 -36 0 -6 3
-12 8 -14 4 -1 23 -25 41 -53 19 -27 40 -53 45 -57 7 -5 7 -8 1 -8 -6 0 -5 -3
1 -8 6 -4 35 -36 65 -72 170 -206 460 -425 664 -503 27 -10 53 -24 57 -30 4
-7 8 -9 8 -5 0 3 35 -6 79 -22 62 -22 145 -46 191 -55 12 -3 96 -19 110 -21
113 -20 444 -27 565 -12 96 12 190 29 215 38 3 1 10 3 15 4 17 3 99 27 115 33
8 3 22 7 30 9 8 2 23 7 35 12 11 6 55 26 97 46 42 20 82 36 87 36 6 0 11 5 11
10 0 6 5 10 11 10 6 0 45 23 86 50 41 28 76 50 78 50 2 0 15 10 28 23 13 12
34 29 46 38 40 30 121 110 121 121 0 5 6 8 13 5 9 -3 12 -53 13 -203 2 -247 1
-237 17 -231 8 3 19 2 26 -2 7 -5 30 -5 52 -1 22 4 42 4 45 -1 2 -4 16 -4 29
1 14 5 25 6 25 2 0 -5 23 -6 50 -2 28 4 53 3 56 -1 3 -5 16 -4 29 1 14 5 25 6
25 2 0 -5 25 -5 56 -2 30 3 57 3 60 -2 3 -4 13 -4 23 2 10 5 21 6 25 3 8 -8
85 -8 93 0 3 4 14 2 24 -4 13 -7 19 -6 19 1 0 7 6 8 19 0 13 -7 22 -7 26 0 4
7 13 7 26 0 13 -8 19 -7 19 0 0 6 5 8 11 4 14 -8 165 -7 179 1 5 3 11 1 15 -5
4 -6 12 -7 24 -1 9 5 23 6 30 2 7 -5 30 -5 52 -1 22 4 42 4 45 -1 2 -4 16 -4
29 1 14 5 25 6 25 2 0 -5 23 -6 50 -2 28 4 53 3 56 -1 3 -5 16 -4 29 1 14 5
25 6 25 2 0 -5 25 -5 55 -2 30 3 55 3 55 -1 0 -3 11 -4 24 -2 l24 5 1 1681 c0
925 0 1704 0 1730 l1 49 113 -114 c61 -63 141 -139 177 -169 36 -30 67 -56 70
-59 3 -3 37 -29 75 -57 39 -29 75 -56 80 -61 53 -43 350 -226 441 -272 27 -14
51 -27 54 -30 3 -3 41 -22 85 -44 44 -21 87 -42 95 -47 26 -15 140 -68 147
-68 3 1 9 -3 12 -8 3 -5 54 -36 114 -68 59 -33 107 -63 107 -67 0 -5 5 -8 11
-8 14 0 141 -89 194 -135 267 -234 305 -362 175 -585 -14 -25 -29 -53 -33 -62
-3 -10 -11 -18 -17 -18 -5 0 -10 -7 -10 -15 0 -8 -4 -15 -10 -15 -5 0 -10 -5
-10 -10 0 -37 -299 -336 -440 -440 -18 -14 -44 -34 -56 -45 -13 -11 -46 -36
-75 -55 -28 -19 -59 -42 -68 -50 -10 -8 -25 -19 -34 -25 -8 -5 -71 -46 -138
-89 -68 -43 -131 -81 -141 -84 -10 -2 -18 -8 -18 -13 0 -5 -6 -9 -12 -9 -7 0
-24 -9 -37 -19 l-25 -19 45 -88 c24 -49 47 -90 52 -92 4 -2 7 -12 7 -22 0 -10
3 -20 8 -22 4 -1 25 -39 48 -83 47 -92 147 -284 242 -465 36 -69 93 -178 126
-242 l59 -117 66 36 c104 56 408 245 451 280 8 6 51 38 95 69 350 248 684 566
876 833 27 36 52 71 57 76 19 23 142 233 142 243 0 7 5 12 10 12 6 0 10 9 10
20 0 11 4 20 8 20 4 0 8 10 9 22 1 11 6 24 11 27 5 3 14 20 20 36 6 17 20 55
32 85 94 247 124 526 85 800 -4 29 -14 73 -49 210 -11 42 -72 189 -106 254
-42 79 -119 208 -129 216 -4 3 -18 21 -31 40 -13 19 -29 40 -35 46 -5 7 -30
35 -55 64 -108 126 -302 302 -430 390 -19 13 -37 27 -40 30 -8 9 -171 115
-210 136 -19 10 -37 22 -40 25 -3 3 -41 25 -85 49 -44 24 -82 47 -85 51 -3 4
-18 11 -33 14 -15 4 -27 11 -27 16 0 5 -3 8 -7 7 -5 -1 -37 13 -73 32 -36 19
-67 35 -70 35 -16 4 -166 81 -168 88 -2 4 -7 5 -12 2 -4 -3 -13 2 -20 10 -7 8
-18 15 -26 15 -7 0 -19 6 -26 13 -7 7 -24 18 -38 25 -27 13 -25 12 -150 92
-47 30 -87 57 -90 60 -3 3 -21 17 -40 30 -58 40 -216 190 -255 241 -123 162
-156 295 -113 453 11 39 22 81 25 94 3 12 9 22 14 22 5 0 9 7 9 15 0 18 67
143 87 163 7 7 13 17 13 22 0 13 144 195 204 259 73 77 254 251 262 251 3 0
15 10 28 23 12 12 38 33 56 47 18 14 39 31 46 38 7 6 17 12 23 12 6 0 11 4 11
8 0 5 11 15 25 22 14 7 25 17 25 22 0 5 -58 97 -130 205 -71 107 -130 199
-130 204 0 5 -4 9 -8 9 -4 0 -21 23 -37 50 -16 28 -33 50 -38 50 -4 0 -6 4 -3
9 4 5 2 11 -2 13 -5 1 -33 41 -63 88 -29 47 -59 91 -66 98 -7 7 -13 17 -13 21
0 4 -8 17 -17 29 -10 11 -56 80 -103 151 -46 72 -89 131 -96 131 -6 0 -69 -44
-140 -97z m-3174 -3536 c0 15 140 2 235 -21 190 -48 395 -205 502 -383 47 -80
107 -239 102 -273 0 -3 4 -18 10 -33 6 -16 14 -65 18 -110 40 -478 -98 -811
-425 -1020 -46 -29 -139 -70 -187 -82 -16 -4 -39 -9 -50 -12 -73 -19 -242 -23
-333 -9 -193 31 -396 152 -508 302 -16 21 -31 41 -34 44 -31 31 -137 276 -125
288 3 3 1 10 -4 16 -5 6 -12 31 -15 56 -3 25 -9 56 -12 70 -11 48 -13 314 -2
327 7 9 7 13 -1 13 -7 0 -10 4 -7 8 4 7 11 46 22 127 1 11 3 21 3 23 1 1 2 5
2 10 15 76 112 292 131 292 5 0 8 7 8 16 0 29 181 196 262 242 116 66 189 90
323 108 28 3 52 8 54 10 2 2 10 -1 18 -7 7 -7 13 -7 13 -2z"/>
</g>
</svg>
